<?xml version="1.0" encoding="utf-8"?>
<!-- Generator: Adobe Illustrator 24.2.1, SVG Export Plug-In . SVG Version: 6.00 Build 0)  -->
<svg version="1.1" id="Layer_1" xmlns="http://www.w3.org/2000/svg" xmlns:xlink="http://www.w3.org/1999/xlink" x="0px" y="0px"
	 viewBox="0 0 50 43" style="enable-background:new 0 0 50 43;" xml:space="preserve">
<style type="text/css">
	.st0{fill:url(#SVGID_1_);}
	.st1{fill:#2E507A;}
	.st2{fill:url(#SVGID_2_);}
	.st3{fill:url(#SVGID_3_);}
	.st4{fill:url(#SVGID_4_);}
	.st5{fill:url(#SVGID_5_);}
	.st6{fill:url(#SVGID_6_);}
	.st7{fill:url(#SVGID_7_);}
	.st8{fill:url(#SVGID_8_);}
	.st9{fill:url(#SVGID_9_);}
	.st10{fill:url(#SVGID_10_);}
	.st11{fill:url(#SVGID_11_);}
	.st12{fill:url(#SVGID_12_);}
	.st13{fill:url(#SVGID_13_);}
	.st14{fill:url(#SVGID_14_);}
	.st15{fill:url(#SVGID_15_);}
	.st16{fill:url(#SVGID_16_);}
	.st17{fill:url(#SVGID_17_);}
	.st18{fill:url(#SVGID_18_);}
	.st19{fill:url(#SVGID_19_);}
	.st20{fill:url(#SVGID_20_);}
	.st21{fill:url(#SVGID_21_);}
	.st22{fill:url(#SVGID_22_);}
	.st23{fill:url(#SVGID_23_);}
	.st24{fill:url(#SVGID_24_);}
	.st25{fill:url(#SVGID_25_);}
	.st26{fill:url(#SVGID_26_);}
	.st27{fill:url(#SVGID_27_);}
	.st28{fill:url(#SVGID_28_);}
	.st29{fill:url(#SVGID_29_);}
	.st30{fill:url(#SVGID_30_);}
	.st31{fill:url(#SVGID_31_);}
	.st32{fill:url(#SVGID_32_);}
	.st33{fill:url(#SVGID_33_);}
	.st34{fill:url(#SVGID_34_);}
	.st35{fill:url(#SVGID_35_);}
	.st36{fill:url(#SVGID_36_);}
	.st37{fill:url(#SVGID_37_);}
	.st38{fill:url(#SVGID_38_);}
	.st39{fill:url(#SVGID_39_);}
	.st40{fill:url(#SVGID_40_);}
</style>
<g>
	<linearGradient id="SVGID_1_" gradientUnits="userSpaceOnUse" x1="25.2144" y1="42.5632" x2="24.7908" y2="4.2337">
		<stop  offset="0" style="stop-color:#1E6894"/>
		<stop  offset="1" style="stop-color:#2E507A"/>
	</linearGradient>
	<path class="st0" d="M44.9,2.7H5c-1.9,0-3.5,1.6-3.5,3.5v25c0,1.9,1.6,3.5,3.5,3.5h14.2v4.6h-2v1h15.5v-1h-2.4v-4.6h14.5
		c1.9,0,3.5-1.6,3.5-3.5v-25C48.4,4.2,46.8,2.7,44.9,2.7z M2.5,6.2c0-1.4,1.1-2.5,2.5-2.5h39.9c1.4,0,2.5,1.1,2.5,2.5v21.2H2.5V6.2z
		 M29.4,39.3h-9.2v-4.6h9.2V39.3z M47.4,31.2c0,1.4-1.1,2.5-2.5,2.5H5c-1.4,0-2.5-1.1-2.5-2.5v-2.8h44.8V31.2z"/>
	<g>
		<path class="st1" d="M24.9,32.8c-0.9,0-1.6-0.7-1.6-1.6c0-0.9,0.7-1.6,1.6-1.6c0.9,0,1.6,0.7,1.6,1.6
			C26.5,32.1,25.8,32.8,24.9,32.8z M24.9,30.2c-0.6,0-1,0.5-1,1s0.5,1,1,1c0.6,0,1-0.5,1-1S25.5,30.2,24.9,30.2z"/>
	</g>
</g>
<g>
	<linearGradient id="SVGID_2_" gradientUnits="userSpaceOnUse" x1="10.7893" y1="15.5746" x2="37.4011" y2="16.9157">
		<stop  offset="0" style="stop-color:#1E6894"/>
		<stop  offset="1" style="stop-color:#2E507A"/>
	</linearGradient>
	<path class="st2" d="M36.4,20.8c0.5,0.5,0.9,0.9,1.3,1.3c0.3,0.3,0.4,0.7,0.1,0.9c-0.3,0.3-0.6,0.2-1-0.1c-0.4-0.4-0.8-0.8-1.3-1.3
		c-0.1,0.4-0.3,0.8-0.4,1.2c-0.1,0.5-0.4,0.9-0.9,1c-0.5,0.1-0.9,0-1.3-0.5c-0.1-0.2-0.3-0.1-0.5-0.1c-2.7,0-5.5,0-8.2,0
		c-0.7,0-1.1-0.3-1.3-0.9c-0.1-0.2-0.1-0.4,0-0.6c0.5-0.9,0.4-1.9,0.5-2.9c0.1-1.5,0.2-3,0.3-4.4c0.1-0.7,0.6-1.1,1.4-1.1
		c0.4,0,0.5-0.1,0.5-0.5c0-0.6,0.1-1.2,0.2-1.9c0.2-0.9,1-1.5,1.9-1.6c0.4,0,0.7,0,1.1,0c0.9,0.1,1.7,0.9,1.8,1.8
		c0.1,0.6,0.1,1.2,0.2,1.7c0,0.3,0.1,0.4,0.4,0.4c1,0,1.4,0.4,1.5,1.4c0,0.4,0.1,0.8,0.1,1.2c0,0.2,0.1,0.3,0.3,0.4
		c1.4,0.5,2.7,1.1,4.1,1.7c0.2,0.1,0.3,0.1,0.5,0.2c0.5,0.2,0.8,0.7,0.7,1.2c0,0.5-0.3,0.9-0.9,1.1c-0.2,0.1-0.5,0.1-0.7,0.2
		C36.9,20.7,36.7,20.7,36.4,20.8z M32.4,22.1c0-0.1-0.1-0.2-0.1-0.3c-0.5-1.3-1-2.5-1.5-3.8c-0.4-0.9,0-1.7,0.9-2.1
		c0.1,0,0.2,0,0.2-0.2c0-0.4,0-0.8-0.1-1.2c-0.1-0.2-0.6,0-0.9-0.1c-0.2,0-0.4,0-0.6,0c-1.6,0-3.2,0-4.8,0c-0.2,0-0.3-0.1-0.4,0.2
		c-0.1,1.5-0.2,3-0.3,4.5c-0.1,0.9,0,1.8-0.4,2.6c-0.1,0.2,0,0.2,0.2,0.2C27.1,22.1,29.7,22.1,32.4,22.1z M37.5,19.2
		c-1.8-0.7-3.6-1.4-5.3-2.1c-0.1,0-0.2-0.1-0.3,0c-0.1,0.1-0.1,0.2,0,0.3c0.1,0.3,0.3,0.7,0.4,1c0.6,1.4,1.1,2.8,1.8,4.3
		c0.2-0.7,0.4-1.3,0.5-1.9c0.2-0.6,0.5-1,1.1-1.1C36.2,19.6,36.8,19.4,37.5,19.2z M28.4,13.3c0.4,0,0.7,0,1.1,0c0.2,0,0.3,0,0.3-0.3
		c-0.1-0.6-0.1-1.1-0.2-1.7c-0.1-0.5-0.4-0.8-0.9-0.8c-0.2,0-0.3,0-0.5,0c-0.7,0-1,0.3-1.1,1c-0.1,0.5-0.1,1-0.2,1.5
		c0,0.2,0,0.3,0.3,0.3C27.7,13.2,28.1,13.3,28.4,13.3z"/>
	<linearGradient id="SVGID_3_" gradientUnits="userSpaceOnUse" x1="10.9388" y1="12.6076" x2="37.5506" y2="13.9488">
		<stop  offset="0" style="stop-color:#1E6894"/>
		<stop  offset="1" style="stop-color:#2E507A"/>
	</linearGradient>
	<path class="st3" d="M16,15.4c-0.8,0-1.7,0-2.5,0c-1.5,0.1-2.5-0.8-2.3-2.3c0-0.3,0-0.5,0-0.8c0-1.1,0.7-1.9,1.8-1.9c2,0,4,0,6,0
		c1.1,0,1.8,0.8,1.9,1.9c0,0.4,0,0.8,0,1.2c0,1.1-0.8,1.9-1.9,1.9C18,15.4,17,15.4,16,15.4z M16.1,11.6c-1,0-2,0-3,0
		c-0.5,0-0.7,0.2-0.7,0.7c0,0.4,0,0.8,0,1.2c0,0.4,0.2,0.6,0.6,0.6c2,0,4,0,6,0c0.4,0,0.6-0.2,0.6-0.6c0-0.4,0-0.8,0-1.2
		c0-0.5-0.2-0.7-0.7-0.7C18,11.6,17,11.6,16.1,11.6z"/>
	<linearGradient id="SVGID_4_" gradientUnits="userSpaceOnUse" x1="10.6604" y1="18.1317" x2="37.2722" y2="19.4729">
		<stop  offset="0" style="stop-color:#1E6894"/>
		<stop  offset="1" style="stop-color:#2E507A"/>
	</linearGradient>
	<path class="st4" d="M16.1,15.9c1,0,2,0,2.9,0c1.1,0,1.9,0.8,1.9,1.9c0,0.4,0,0.8,0,1.2c0,1.1-0.7,1.9-1.9,1.9c-0.5,0-1,0-1.6,0
		c-1.4,0-2.9,0-4.3,0c-1.3,0-2-0.7-2-2c0-0.5-0.1-1.1,0.1-1.6c0.2-0.8,0.9-1.3,1.7-1.4C14,15.9,15,15.9,16.1,15.9z M16,19.7
		c1,0,2,0,2.9,0c0.5,0,0.7-0.2,0.7-0.6c0-0.4,0-0.8,0-1.3c0-0.4-0.2-0.6-0.6-0.6c-2,0-4,0-6,0c-0.4,0-0.6,0.2-0.6,0.6
		c0,0.4,0,0.8,0,1.2c0,0.5,0.2,0.7,0.7,0.7C14.1,19.7,15.1,19.7,16,19.7z"/>
</g>
</svg>
