<?xml version="1.0" encoding="utf-8"?>
<!-- Generator: Adobe Illustrator 24.2.1, SVG Export Plug-In . SVG Version: 6.00 Build 0)  -->
<svg version="1.1" id="Layer_1" xmlns="http://www.w3.org/2000/svg" xmlns:xlink="http://www.w3.org/1999/xlink" x="0px" y="0px"
	 viewBox="0 0 50 43" style="enable-background:new 0 0 50 43;" xml:space="preserve">
<style type="text/css">
	.st0{fill:url(#SVGID_1_);}
	.st1{fill:#2E507A;}
	.st2{fill:url(#SVGID_2_);}
	.st3{fill:url(#SVGID_3_);}
	.st4{fill:url(#SVGID_4_);}
	.st5{fill:url(#SVGID_5_);}
	.st6{fill:url(#SVGID_6_);}
	.st7{fill:url(#SVGID_7_);}
	.st8{fill:url(#SVGID_8_);}
	.st9{fill:url(#SVGID_9_);}
	.st10{fill:url(#SVGID_10_);}
	.st11{fill:url(#SVGID_11_);}
	.st12{fill:url(#SVGID_12_);}
	.st13{fill:url(#SVGID_13_);}
	.st14{fill:url(#SVGID_14_);}
	.st15{fill:url(#SVGID_15_);}
	.st16{fill:url(#SVGID_16_);}
	.st17{fill:url(#SVGID_17_);}
	.st18{fill:url(#SVGID_18_);}
	.st19{fill:url(#SVGID_19_);}
	.st20{fill:url(#SVGID_20_);}
	.st21{fill:url(#SVGID_21_);}
	.st22{fill:url(#SVGID_22_);}
	.st23{fill:url(#SVGID_23_);}
	.st24{fill:url(#SVGID_24_);}
	.st25{fill:url(#SVGID_25_);}
	.st26{fill:url(#SVGID_26_);}
	.st27{fill:url(#SVGID_27_);}
	.st28{fill:url(#SVGID_28_);}
	.st29{fill:url(#SVGID_29_);}
	.st30{fill:url(#SVGID_30_);}
	.st31{fill:url(#SVGID_31_);}
	.st32{fill:url(#SVGID_32_);}
	.st33{fill:url(#SVGID_33_);}
	.st34{fill:url(#SVGID_34_);}
	.st35{fill:url(#SVGID_35_);}
	.st36{fill:url(#SVGID_36_);}
	.st37{fill:url(#SVGID_37_);}
	.st38{fill:url(#SVGID_38_);}
	.st39{fill:url(#SVGID_39_);}
	.st40{fill:url(#SVGID_40_);}
</style>
<g>
	<linearGradient id="SVGID_1_" gradientUnits="userSpaceOnUse" x1="25.3657" y1="42.0577" x2="24.7304" y2="4.7871">
		<stop  offset="0" style="stop-color:#1E6894"/>
		<stop  offset="1" style="stop-color:#2E507A"/>
	</linearGradient>
	<path class="st0" d="M44.9,2.8H5c-1.9,0-3.5,1.6-3.5,3.5v25c0,1.9,1.6,3.5,3.5,3.5h14.2v4.6h-2v1h15.5v-1h-2.4v-4.6h14.5
		c1.9,0,3.5-1.6,3.5-3.5v-25C48.4,4.4,46.8,2.8,44.9,2.8z M2.6,6.3C2.6,5,3.7,3.8,5,3.8h39.9c1.4,0,2.5,1.1,2.5,2.5v21.2H2.6V6.3z
		 M29.4,39.5h-9.2v-4.6h9.2V39.5z M47.4,31.4c0,1.4-1.1,2.5-2.5,2.5H5c-1.4,0-2.5-1.1-2.5-2.5v-2.8h44.8V31.4z"/>
	<g>
		<path class="st1" d="M25.1,32.8c-0.9,0-1.6-0.7-1.6-1.6c0-0.9,0.7-1.6,1.6-1.6c0.9,0,1.6,0.7,1.6,1.6C26.7,32.1,26,32.8,25.1,32.8
			z M25.1,30.2c-0.6,0-1,0.5-1,1s0.5,1,1,1c0.6,0,1-0.5,1-1S25.6,30.2,25.1,30.2z"/>
	</g>
</g>
<g>
	<g>
		<linearGradient id="SVGID_2_" gradientUnits="userSpaceOnUse" x1="9.7559" y1="15.5521" x2="37.9158" y2="16.076">
			<stop  offset="0" style="stop-color:#1E6894"/>
			<stop  offset="1" style="stop-color:#2E507A"/>
		</linearGradient>
		<path class="st2" d="M39.1,7.6c0,0,0-0.1,0-0.1c0-1-0.7-1.6-1.6-1.6c-8.3,0-16.7,0-25,0c-0.9,0-1.6,0.7-1.6,1.7c0,0,0,0.1,0,0.1
			c0,1.4,0,2.7,0,4.1c0,3.5,0,7,0,10.5c0,0.7,0,1.4,0,2.1c0,0,0,0.1,0,0.1v1.4h28.3v-1.5C39.1,18.7,39.1,13.2,39.1,7.6z M23.2,24.4
			c0,0.2,0,0.3-0.3,0.3c-2.4,0-4.8,0-7.2,0c-0.2,0-0.3-0.1-0.3-0.3c0-0.4,0-0.9,0-1.3c0-0.3,0-0.3,0.3-0.3c1.2,0,2.4,0,3.6,0
			c1.2,0,2.4,0,3.6,0c0.2,0,0.3,0,0.3,0.3C23.2,23.5,23.2,24,23.2,24.4z M34.5,23.1c0,0.4,0,0.9,0,1.3c0,0.2,0,0.3-0.2,0.3
			c-2.4,0-4.9,0-7.3,0c-0.1,0-0.2,0-0.2-0.2c0-0.5,0-1,0-1.5c0-0.2,0.1-0.2,0.3-0.2h3.6c1.2,0,2.4,0,3.6,0
			C34.4,22.8,34.5,22.8,34.5,23.1z M38.1,24.3c0,0.3-0.1,0.4-0.4,0.4c-0.6,0-1.2,0-1.8,0c-0.3,0-0.4-0.1-0.4-0.4c0-0.6,0-1.3,0-1.9
			c0-0.6-0.2-0.7-0.7-0.7c-2.8,0-5.7,0-8.5,0c-0.5,0-0.7,0.2-0.7,0.7c0,0.7,0,1.3,0,2c0,0.2,0,0.3-0.3,0.3c-0.3,0-0.6,0-0.9,0
			c-0.2,0-0.3-0.1-0.3-0.3c0-0.7,0-1.3,0-2c0-0.5-0.2-0.7-0.7-0.7c-2.8,0-5.7,0-8.5,0c-0.5,0-0.7,0.2-0.7,0.7c0,0.7,0,1.3,0,2
			c0,0.2,0,0.4-0.3,0.3c-0.6,0-1.3,0-1.9,0c-0.3,0-0.3-0.1-0.3-0.3c0-4.2,0-8.4,0-12.6c0-0.3,0.1-0.4,0.4-0.4c4.1,0,8.2,0,12.3,0H25
			c4.3,0,8.5,0,12.8,0c0.3,0,0.4,0.1,0.4,0.4C38.1,16,38.1,20.1,38.1,24.3z M37.7,10.3c-4.3,0-8.5,0-12.8,0c-4.2,0-8.5,0-12.7,0
			c-0.4,0-0.4-0.1-0.4-0.5c0-0.7,0-1.3,0-2C11.9,7.1,12,7,12.6,7h21.9c0.9,0,1.9,0,2.8,0c0.5,0,0.7,0.2,0.7,0.7c0,0.7,0,1.5,0,2.2
			C38.1,10.2,38,10.3,37.7,10.3z"/>
		<linearGradient id="SVGID_3_" gradientUnits="userSpaceOnUse" x1="9.7471" y1="16.4313" x2="37.8929" y2="16.9549">
			<stop  offset="0" style="stop-color:#1E6894"/>
			<stop  offset="1" style="stop-color:#2E507A"/>
		</linearGradient>
		<path class="st3" d="M25,13.1c3.3,0,6.5,0,9.8,0c0.6,0,0.8,0.2,0.8,0.9c0,1.8,0,3.6,0,5.5c0,0.7-0.1,0.8-0.8,0.8
			c-4.6,0-9.2,0-13.8,0c-0.1,0-0.2,0-0.3,0c-0.3,0-0.5-0.2-0.5-0.5c0-0.3,0.2-0.5,0.5-0.6c0.1,0,0.2,0,0.3,0c4.4,0,8.7,0,13.1,0
			c0.3,0,0.4,0,0.4-0.4c0-1.4,0-2.8,0-4.2c0-0.3-0.1-0.3-0.3-0.3c-6.1,0-12.3,0-18.4,0c-0.2,0-0.3,0-0.3,0.3c0,1.4,0,2.8,0,4.2
			c0,0.3,0.1,0.3,0.3,0.3c0.9,0,1.9,0,2.8,0c0.4,0,0.7,0.2,0.7,0.6c0,0.4-0.2,0.6-0.7,0.6c-1.2,0-2.3,0-3.5,0
			c-0.5,0-0.7-0.2-0.7-0.7c0-1.9,0-3.8,0-5.7c0-0.5,0.2-0.7,0.7-0.7C18.4,13.1,21.7,13.1,25,13.1z"/>
		<linearGradient id="SVGID_4_" gradientUnits="userSpaceOnUse" x1="9.8906" y1="8.4144" x2="38.0269" y2="8.9379">
			<stop  offset="0" style="stop-color:#1E6894"/>
			<stop  offset="1" style="stop-color:#2E507A"/>
		</linearGradient>
		<path class="st4" d="M19.7,8.6c0,0.5-0.4,0.9-0.8,0.9c-0.4,0-0.8-0.4-0.8-0.9c0-0.5,0.4-0.9,0.8-0.9C19.4,7.7,19.8,8.1,19.7,8.6z"
			/>
		<linearGradient id="SVGID_5_" gradientUnits="userSpaceOnUse" x1="9.8898" y1="8.462" x2="38.0261" y2="8.9854">
			<stop  offset="0" style="stop-color:#1E6894"/>
			<stop  offset="1" style="stop-color:#2E507A"/>
		</linearGradient>
		<path class="st5" d="M17.2,8.6c0,0.5-0.4,0.9-0.8,0.9c-0.4,0-0.8-0.4-0.8-0.9c0-0.5,0.4-0.9,0.8-0.9C16.8,7.7,17.2,8.1,17.2,8.6z"
			/>
		<linearGradient id="SVGID_6_" gradientUnits="userSpaceOnUse" x1="9.889" y1="8.5093" x2="38.0252" y2="9.0328">
			<stop  offset="0" style="stop-color:#1E6894"/>
			<stop  offset="1" style="stop-color:#2E507A"/>
		</linearGradient>
		<path class="st6" d="M14.6,8.6c0,0.5-0.4,0.9-0.8,0.9C13.4,9.5,13,9,13,8.6c0-0.5,0.4-0.8,0.8-0.9C14.3,7.7,14.6,8.1,14.6,8.6z"/>
	</g>
	<linearGradient id="SVGID_7_" gradientUnits="userSpaceOnUse" x1="9.6994" y1="14.8367" x2="40.0044" y2="15.4005">
		<stop  offset="0" style="stop-color:#1E6894"/>
		<stop  offset="1" style="stop-color:#2E507A"/>
	</linearGradient>
	<path class="st7" d="M10.8,7.6c0,0,0-0.1,0-0.1v14.7c0-3.5,0-7,0-10.5C10.8,10.3,10.8,9,10.8,7.6z"/>
</g>
</svg>
