<?xml version="1.0" encoding="utf-8"?>
<!-- Generator: Adobe Illustrator 24.2.1, SVG Export Plug-In . SVG Version: 6.00 Build 0)  -->
<svg version="1.1" id="Layer_1" xmlns="http://www.w3.org/2000/svg" xmlns:xlink="http://www.w3.org/1999/xlink" x="0px" y="0px"
	 viewBox="0 0 50 43" style="enable-background:new 0 0 50 43;" xml:space="preserve">
<style type="text/css">
	.st0{fill:url(#SVGID_1_);}
	.st1{fill:#2E507A;}
	.st2{fill:url(#SVGID_2_);}
	.st3{fill:url(#SVGID_3_);}
	.st4{fill:url(#SVGID_4_);}
	.st5{fill:url(#SVGID_5_);}
	.st6{fill:url(#SVGID_6_);}
	.st7{fill:url(#SVGID_7_);}
	.st8{fill:url(#SVGID_8_);}
	.st9{fill:url(#SVGID_9_);}
	.st10{fill:url(#SVGID_10_);}
	.st11{fill:url(#SVGID_11_);}
	.st12{fill:url(#SVGID_12_);}
	.st13{fill:url(#SVGID_13_);}
	.st14{fill:url(#SVGID_14_);}
	.st15{fill:url(#SVGID_15_);}
	.st16{fill:url(#SVGID_16_);}
	.st17{fill:url(#SVGID_17_);}
	.st18{fill:url(#SVGID_18_);}
	.st19{fill:url(#SVGID_19_);}
	.st20{fill:url(#SVGID_20_);}
	.st21{fill:url(#SVGID_21_);}
	.st22{fill:url(#SVGID_22_);}
	.st23{fill:url(#SVGID_23_);}
	.st24{fill:url(#SVGID_24_);}
	.st25{fill:url(#SVGID_25_);}
	.st26{fill:url(#SVGID_26_);}
	.st27{fill:url(#SVGID_27_);}
	.st28{fill:url(#SVGID_28_);}
	.st29{fill:url(#SVGID_29_);}
	.st30{fill:url(#SVGID_30_);}
	.st31{fill:url(#SVGID_31_);}
	.st32{fill:url(#SVGID_32_);}
	.st33{fill:url(#SVGID_33_);}
	.st34{fill:url(#SVGID_34_);}
	.st35{fill:url(#SVGID_35_);}
	.st36{fill:url(#SVGID_36_);}
	.st37{fill:url(#SVGID_37_);}
	.st38{fill:url(#SVGID_38_);}
	.st39{fill:url(#SVGID_39_);}
	.st40{fill:url(#SVGID_40_);}
</style>
<g>
	<linearGradient id="SVGID_1_" gradientUnits="userSpaceOnUse" x1="25.2639" y1="42.5632" x2="24.8404" y2="4.2337">
		<stop  offset="0" style="stop-color:#1E6894"/>
		<stop  offset="1" style="stop-color:#2E507A"/>
	</linearGradient>
	<path class="st0" d="M44.9,2.7H5.1c-1.9,0-3.5,1.6-3.5,3.5v25c0,1.9,1.6,3.5,3.5,3.5h14.2v4.6h-2v1h15.5v-1h-2.4v-4.6h14.5
		c1.9,0,3.5-1.6,3.5-3.5v-25C48.4,4.2,46.8,2.7,44.9,2.7z M2.6,6.2c0-1.4,1.1-2.5,2.5-2.5h39.9c1.4,0,2.5,1.1,2.5,2.5v21.2H2.6V6.2z
		 M29.4,39.3h-9.2v-4.6h9.2V39.3z M47.4,31.2c0,1.4-1.1,2.5-2.5,2.5H5.1c-1.4,0-2.5-1.1-2.5-2.5v-2.8h44.8V31.2z"/>
	<g>
		<path class="st1" d="M25,32.7c-0.9,0-1.6-0.7-1.6-1.6c0-0.9,0.7-1.6,1.6-1.6c0.9,0,1.6,0.7,1.6,1.6C26.7,32,25.9,32.7,25,32.7z
			 M25,30.1c-0.6,0-1,0.5-1,1s0.5,1,1,1c0.6,0,1-0.5,1-1S25.6,30.1,25,30.1z"/>
	</g>
</g>
<g>
	<linearGradient id="SVGID_2_" gradientUnits="userSpaceOnUse" x1="13.6043" y1="15.807" x2="34.849" y2="15.5777">
		<stop  offset="0" style="stop-color:#1E6894"/>
		<stop  offset="1" style="stop-color:#2E507A"/>
	</linearGradient>
	<path class="st2" d="M13.9,7.1c0.1-0.2,0.1-0.4,0.2-0.6c0.4-0.8,1.1-1.3,2-1.3c5.4,0,10.8,0,16.2,0c1.2,0,2,0.9,2.2,2
		c0,0.2,0,0.5,0,0.7c0,2.9,0,5.8,0,8.7c0,0.1,0,0.2,0.1,0.3c0.5,0.5,0.5,1,0.1,1.5c-0.1,0.1-0.1,0.1,0,0.2c0,0,0,0.1,0.1,0.1
		c0.1,0.3,0.2,0.6,0.7,0.6c0.4,0,0.7,0.5,0.7,0.9c0,0.3,0,0.5,0,0.8c0,0.5-0.4,0.9-0.9,0.9c-0.2,0-0.2,0-0.3,0.2c0,0,0,0.1-0.1,0.1
		c-0.2,0.3-0.2,0.5,0,0.8c0.3,0.3,0.2,0.8-0.1,1.1c-0.2,0.2-0.4,0.4-0.6,0.6c-0.4,0.4-1,0.4-1.3,0c-0.1-0.1-0.2-0.1-0.3,0
		c0,0-0.1,0-0.1,0c-0.3,0.1-0.5,0.2-0.6,0.6c0,0.4-0.5,0.7-0.9,0.7c-0.3,0-0.5,0-0.8,0c-0.6,0-1-0.4-1-1c0-0.1-0.1-0.2-0.2-0.2
		c0,0-0.1,0-0.1,0c-0.3-0.2-0.6-0.2-0.9,0c-0.3,0.3-0.8,0.2-1.1-0.1c-0.2-0.2-0.4-0.4-0.6-0.6c-0.4-0.4-0.3-0.9,0-1.3
		c0.1-0.1,0.1-0.2,0-0.3c0-0.1-0.1-0.1-0.1-0.2c-0.1-0.1-0.1-0.3-0.2-0.4c-0.1-0.1-0.3,0-0.5,0c-1.1,0-2.1,0-3.2,0
		c-0.2,0-0.4-0.1-0.5-0.3c-0.1-0.2,0-0.4,0.2-0.5c0.1-0.1,0.2-0.1,0.3-0.1c0.7,0,1.5,0,2.2,0c0.2,0,0.2,0,0.2-0.2c0-0.2,0-0.4,0-0.6
		c0-0.6,0.4-1,1-1c0.2,0,0.2-0.1,0.2-0.2c0,0,0-0.1,0-0.1c0.2-0.3,0.2-0.5,0-0.8c-0.3-0.3-0.2-0.8,0.1-1.1c0.2-0.2,0.4-0.5,0.7-0.7
		c0.4-0.3,0.9-0.3,1.3,0c0.1,0.1,0.2,0.1,0.3,0c0,0,0.1-0.1,0.2-0.1c0.3-0.1,0.5-0.2,0.5-0.6c0-0.4,0.4-0.7,0.8-0.7
		c0.4-0.1,0.7-0.1,1.1,0c0.5,0.1,0.8,0.4,0.9,1c0,0.1,0.1,0.2,0.2,0.2c0,0,0.1,0,0.1,0c0.3,0.1,0.5,0.3,0.8,0
		c0.1-0.1,0.3-0.1,0.4-0.1c0.2,0,0.2-0.1,0.2-0.2c0-1.3,0-2.5,0-3.8c0-0.4,0-0.4-0.4-0.4c-6.1,0-12.1,0-18.2,0
		c-0.2,0-0.3,0.1-0.3,0.3c0,2.5,0,5,0,7.5c0,0.3,0,0.7,0.2,1c0.2,0.4,0.6,0.6,1.1,0.6c0.8,0,1.6,0,2.4,0c0.4,0,0.6,0.3,0.4,0.6
		C18.9,22,18.7,22,18.5,22c-0.9,0-1.8,0-2.7,0c-0.8,0-1.4-0.6-1.7-1.3c-0.1-0.2-0.1-0.4-0.2-0.6C13.9,15.8,13.9,11.4,13.9,7.1z
		 M24.2,10.9c3,0,6.1,0,9.1,0c0,0,0.1,0,0.1,0c0.1,0,0.1,0,0.1-0.1c0-1.1,0-2.3,0-3.4C33.6,6.6,33,6,32.2,6c-2.5,0-5.1,0-7.6,0
		c-2.8,0-5.6,0-8.4,0c-0.5,0-0.9,0.2-1.2,0.7c-0.1,0.3-0.2,0.6-0.2,0.9c0,1,0,2,0,3c0,0.2,0,0.2,0.2,0.2
		C18.1,10.9,21.2,10.9,24.2,10.9z M27.5,17.1c-0.1,0.1-0.2,0.2-0.3,0.3c-0.4,0.3-0.4,0.4,0,0.7c0.2,0.3,0.3,0.4,0.1,0.7
		c-0.2,0.3-0.3,0.6-0.4,1c-0.1,0.3-0.2,0.4-0.6,0.4c-0.5,0-0.5,0-0.5,0.5c0,0.5,0,0.5,0.5,0.5c0.3,0,0.4,0.1,0.5,0.4
		c0.1,0.3,0.2,0.7,0.4,1c0.2,0.4,0.2,0.5-0.1,0.8c-0.4,0.4-0.4,0.3,0,0.6c0.4,0.4,0.4,0.4,0.8,0c0.2-0.2,0.4-0.2,0.7-0.1
		c0.3,0.2,0.7,0.3,1,0.4c0.3,0.1,0.4,0.2,0.4,0.6c0,0.5,0,0.5,0.5,0.5c0.5,0,0.5,0.1,0.5-0.5c0-0.4,0.1-0.5,0.5-0.6
		c0.3-0.1,0.6-0.2,0.9-0.4c0.3-0.2,0.5-0.2,0.8,0.1c0.3,0.3,0.3,0.3,0.6,0c0.4-0.4,0.4-0.4,0-0.8c-0.2-0.2-0.2-0.4-0.1-0.7
		c0.2-0.3,0.3-0.6,0.4-1c0.1-0.4,0.2-0.4,0.6-0.5c0.5,0,0.5,0,0.5-0.5c0-0.5,0-0.5-0.5-0.5c-0.3,0-0.5-0.1-0.5-0.4
		c-0.1-0.4-0.2-0.7-0.4-1c-0.2-0.3-0.2-0.4,0.1-0.7c0.3-0.3,0.3-0.3,0-0.7c-0.4-0.4-0.4-0.4-0.7,0c-0.2,0.2-0.4,0.2-0.7,0.1
		c-0.3-0.2-0.6-0.3-1-0.4c-0.4-0.1-0.5-0.2-0.5-0.6c0-0.4,0-0.4-0.4-0.4C30,16,30,16,30,16.5c0,0.3-0.1,0.4-0.4,0.5
		c-0.3,0.1-0.5,0.2-0.8,0.3c-0.6,0.3-0.6,0.3-1.1-0.2C27.6,17.1,27.6,17.1,27.5,17.1z"/>
	<linearGradient id="SVGID_3_" gradientUnits="userSpaceOnUse" x1="13.6121" y1="16.5334" x2="34.8568" y2="16.3042">
		<stop  offset="0" style="stop-color:#1E6894"/>
		<stop  offset="1" style="stop-color:#2E507A"/>
	</linearGradient>
	<path class="st3" d="M16.4,16.5c0-0.2,0-0.3,0.1-0.4c0.4-0.5,0.8-0.9,1.2-1.4c0.2-0.2,0.5-0.2,0.6,0c0.2,0.2,0.2,0.4,0,0.6
		c-0.3,0.4-0.6,0.7-0.9,1c-0.1,0.1-0.1,0.1,0,0.2c0.3,0.3,0.6,0.7,0.9,1c0.2,0.2,0.2,0.5,0,0.7c-0.2,0.2-0.5,0.2-0.7-0.1
		c-0.4-0.4-0.7-0.8-1.1-1.2C16.5,16.8,16.4,16.7,16.4,16.5z"/>
	<linearGradient id="SVGID_4_" gradientUnits="userSpaceOnUse" x1="13.6127" y1="16.5865" x2="34.8574" y2="16.3572">
		<stop  offset="0" style="stop-color:#1E6894"/>
		<stop  offset="1" style="stop-color:#2E507A"/>
	</linearGradient>
	<path class="st4" d="M23,14.6c0.1,0,0.2,0.1,0.3,0.2c0.4,0.4,0.8,0.9,1.2,1.3c0.2,0.3,0.2,0.6,0,0.8c-0.4,0.5-0.8,0.9-1.2,1.3
		c-0.2,0.2-0.5,0.2-0.6,0c-0.2-0.2-0.2-0.4,0-0.6c0.3-0.4,0.6-0.7,0.9-1c0.1-0.1,0.1-0.2,0-0.2c-0.3-0.3-0.6-0.7-0.9-1.1
		c-0.1-0.1-0.2-0.3-0.1-0.5C22.6,14.7,22.8,14.6,23,14.6z"/>
	<linearGradient id="SVGID_5_" gradientUnits="userSpaceOnUse" x1="13.6124" y1="16.5527" x2="34.857" y2="16.3234">
		<stop  offset="0" style="stop-color:#1E6894"/>
		<stop  offset="1" style="stop-color:#2E507A"/>
	</linearGradient>
	<path class="st5" d="M20.1,18.7c-0.3,0-0.5-0.3-0.4-0.5c0.3-1.2,0.6-2.4,0.9-3.6c0.1-0.3,0.3-0.4,0.5-0.4c0.3,0.1,0.4,0.3,0.3,0.6
		c-0.3,1.2-0.6,2.4-0.8,3.5C20.5,18.6,20.3,18.7,20.1,18.7z"/>
	<linearGradient id="SVGID_6_" gradientUnits="userSpaceOnUse" x1="13.6678" y1="21.6876" x2="34.9124" y2="21.4584">
		<stop  offset="0" style="stop-color:#1E6894"/>
		<stop  offset="1" style="stop-color:#2E507A"/>
	</linearGradient>
	<path class="st6" d="M20.5,21.2c0.2,0,0.4,0.2,0.5,0.4c0,0.2-0.2,0.5-0.5,0.4c-0.2,0-0.4-0.2-0.4-0.4C20,21.4,20.2,21.2,20.5,21.2z
		"/>
	<linearGradient id="SVGID_7_" gradientUnits="userSpaceOnUse" x1="13.5271" y1="8.6532" x2="34.7718" y2="8.4239">
		<stop  offset="0" style="stop-color:#1E6894"/>
		<stop  offset="1" style="stop-color:#2E507A"/>
	</linearGradient>
	<path class="st7" d="M28.8,10c-0.6,0-1.3,0-1.9,0c-0.8,0-1.5-0.6-1.5-1.5c0-0.8,0.6-1.5,1.5-1.5c1.3,0,2.6,0,3.8,0
		c0.8,0,1.5,0.7,1.5,1.5c0,0.8-0.6,1.4-1.5,1.5C30.1,10,29.5,10,28.8,10z M28.8,7.9C28.8,7.9,28.8,7.9,28.8,7.9c-0.6,0-1.3,0-1.9,0
		c-0.1,0-0.3,0-0.4,0.1c-0.2,0.1-0.3,0.4-0.3,0.7c0.1,0.3,0.3,0.4,0.6,0.4c1.2,0,2.5,0,3.7,0c0.1,0,0.2,0,0.3-0.1
		c0.2-0.1,0.4-0.4,0.4-0.6c0-0.3-0.3-0.5-0.5-0.5C30.1,7.9,29.5,7.9,28.8,7.9z"/>
	<linearGradient id="SVGID_8_" gradientUnits="userSpaceOnUse" x1="13.5258" y1="8.5356" x2="34.7705" y2="8.3063">
		<stop  offset="0" style="stop-color:#1E6894"/>
		<stop  offset="1" style="stop-color:#2E507A"/>
	</linearGradient>
	<path class="st8" d="M16.5,8.5C16.5,7.7,17.2,7,18,7c0.8,0,1.5,0.7,1.5,1.5c0,0.8-0.7,1.5-1.5,1.5C17.2,10,16.5,9.3,16.5,8.5z
		 M18,7.9c-0.3,0-0.6,0.3-0.6,0.6c0,0.3,0.3,0.6,0.6,0.6c0.3,0,0.6-0.3,0.6-0.6C18.6,8.2,18.3,7.9,18,7.9z"/>
	<linearGradient id="SVGID_9_" gradientUnits="userSpaceOnUse" x1="13.5263" y1="8.5766" x2="34.7709" y2="8.3474">
		<stop  offset="0" style="stop-color:#1E6894"/>
		<stop  offset="1" style="stop-color:#2E507A"/>
	</linearGradient>
	<path class="st9" d="M23.2,8.5c0,0.8-0.6,1.5-1.5,1.5c-0.8,0-1.5-0.7-1.5-1.5C20.3,7.7,21,7,21.8,7C22.6,7,23.2,7.7,23.2,8.5z
		 M21.2,8.5c0,0.3,0.3,0.6,0.6,0.6c0.3,0,0.6-0.3,0.6-0.6c0-0.3-0.3-0.6-0.6-0.6C21.4,7.9,21.2,8.2,21.2,8.5z"/>
	<linearGradient id="SVGID_10_" gradientUnits="userSpaceOnUse" x1="13.6588" y1="20.86" x2="34.9035" y2="20.6308">
		<stop  offset="0" style="stop-color:#1E6894"/>
		<stop  offset="1" style="stop-color:#2E507A"/>
	</linearGradient>
	<path class="st10" d="M30.5,18c1.5,0,2.7,1.2,2.6,2.7c0,1.4-1.3,2.6-2.8,2.6c-1.4,0-2.6-1.3-2.6-2.7C27.9,19.2,29.1,18,30.5,18z
		 M30.5,22.5c1,0,1.8-0.8,1.8-1.7c0-1-0.8-1.8-1.7-1.8c-1,0-1.8,0.7-1.9,1.7C28.7,21.6,29.4,22.4,30.5,22.5z"/>
</g>
</svg>
