<?xml version="1.0" encoding="utf-8"?>
<!-- Generator: Adobe Illustrator 24.2.1, SVG Export Plug-In . SVG Version: 6.00 Build 0)  -->
<svg version="1.1" id="Layer_1" xmlns="http://www.w3.org/2000/svg" xmlns:xlink="http://www.w3.org/1999/xlink" x="0px" y="0px"
	 viewBox="0 0 50 43" style="enable-background:new 0 0 50 43;" xml:space="preserve">
<style type="text/css">
	.st0{fill:url(#SVGID_1_);}
	.st1{fill:#2E507A;}
	.st2{fill:url(#SVGID_2_);}
	.st3{fill:url(#SVGID_3_);}
	.st4{fill:url(#SVGID_4_);}
	.st5{fill:url(#SVGID_5_);}
	.st6{fill:url(#SVGID_6_);}
	.st7{fill:url(#SVGID_7_);}
	.st8{fill:url(#SVGID_8_);}
	.st9{fill:url(#SVGID_9_);}
	.st10{fill:url(#SVGID_10_);}
	.st11{fill:url(#SVGID_11_);}
	.st12{fill:url(#SVGID_12_);}
	.st13{fill:url(#SVGID_13_);}
	.st14{fill:url(#SVGID_14_);}
	.st15{fill:url(#SVGID_15_);}
	.st16{fill:url(#SVGID_16_);}
	.st17{fill:url(#SVGID_17_);}
	.st18{fill:url(#SVGID_18_);}
	.st19{fill:url(#SVGID_19_);}
	.st20{fill:url(#SVGID_20_);}
	.st21{fill:url(#SVGID_21_);}
	.st22{fill:url(#SVGID_22_);}
	.st23{fill:url(#SVGID_23_);}
	.st24{fill:url(#SVGID_24_);}
	.st25{fill:url(#SVGID_25_);}
	.st26{fill:url(#SVGID_26_);}
	.st27{fill:url(#SVGID_27_);}
	.st28{fill:url(#SVGID_28_);}
	.st29{fill:url(#SVGID_29_);}
	.st30{fill:url(#SVGID_30_);}
	.st31{fill:url(#SVGID_31_);}
	.st32{fill:url(#SVGID_32_);}
	.st33{fill:url(#SVGID_33_);}
	.st34{fill:url(#SVGID_34_);}
	.st35{fill:url(#SVGID_35_);}
	.st36{fill:url(#SVGID_36_);}
	.st37{fill:url(#SVGID_37_);}
	.st38{fill:url(#SVGID_38_);}
	.st39{fill:url(#SVGID_39_);}
	.st40{fill:url(#SVGID_40_);}
</style>
<g>
	<linearGradient id="SVGID_1_" gradientUnits="userSpaceOnUse" x1="14.4812" y1="15.2073" x2="35.2695" y2="16.2661">
		<stop  offset="0" style="stop-color:#1E6894"/>
		<stop  offset="1" style="stop-color:#2E507A"/>
	</linearGradient>
	<path class="st0" d="M25.1,26.2c-3.1,0-6.2,0-9.3,0c-0.7,0-1.1-0.4-1.1-1.1c0-6.2,0-12.5,0-18.7c0-0.7,0.4-1.1,1.1-1.1
		c6.2,0,12.5,0,18.7,0c0.7,0,1.1,0.4,1.1,1.1c0,6.2,0,12.5,0,18.7c0,0.7-0.4,1.1-1.1,1.1C31.3,26.2,28.2,26.2,25.1,26.2z M25.1,8.8
		c-3.2,0-6.4,0-9.6,0c-0.2,0-0.2,0-0.2,0.2c0,5.3,0,10.7,0,16c0,0.4,0.1,0.5,0.5,0.5c6.2,0,12.4,0,18.6,0c0.4,0,0.5-0.1,0.5-0.5
		c0-5.3,0-10.7,0-16c0-0.2,0-0.2-0.2-0.2C31.5,8.8,28.3,8.8,25.1,8.8z M25.1,8.1c3.2,0,6.4,0,9.6,0c0.2,0,0.2,0,0.2-0.2
		c0-0.5,0-1,0-1.5c0-0.3-0.1-0.4-0.4-0.4C28.2,6,22,6,15.7,6c-0.3,0-0.4,0.1-0.4,0.4c0,0.5,0,1,0,1.4c0,0.2,0,0.2,0.2,0.2
		C18.7,8.1,21.9,8.1,25.1,8.1z"/>
	<linearGradient id="SVGID_2_" gradientUnits="userSpaceOnUse" x1="14.5623" y1="13.6162" x2="35.3505" y2="14.675">
		<stop  offset="0" style="stop-color:#1E6894"/>
		<stop  offset="1" style="stop-color:#2E507A"/>
	</linearGradient>
	<path class="st2" d="M22.1,10.2c1.6,0,3.3,0,4.9,0c0.4,0,0.5,0.1,0.5,0.4c0,2.3,0,4.5,0,6.8c0,0.3-0.1,0.4-0.4,0.4
		c-3.3,0-6.6,0-10,0c-0.3,0-0.4-0.1-0.4-0.4c0-2.3,0-4.6,0-6.8c0-0.3,0.1-0.4,0.4-0.4C18.8,10.2,20.5,10.2,22.1,10.2z M17.4,16.3
		c0.1-0.1,0.1-0.1,0.1-0.2c0.7-1,1.3-2,2-3c0.2-0.3,0.5-0.3,0.7,0c0.4,0.5,0.7,1.1,1.1,1.6c0,0.1,0.1,0.1,0.1,0.2
		c0-0.1,0.1-0.1,0.1-0.2c0.6-1,1.2-1.9,1.8-2.9c0.2-0.4,0.5-0.4,0.8,0c0.7,1.1,1.4,2.2,2.1,3.3c0.2,0.4,0.4,0.7,0.7,1.1
		c0,0,0-0.1,0-0.1c0-1.7,0-3.4,0-5.2c0-0.1-0.1-0.1-0.2-0.1c-3,0-6.1,0-9.1,0c-0.1,0-0.2,0-0.2,0.1C17.4,12.8,17.4,14.5,17.4,16.3z
		 M20.8,17.1c1.9,0,3.8,0,5.7,0c-1-1.5-1.9-3-2.9-4.6C22.7,14.1,21.8,15.6,20.8,17.1z M17.7,17.1c0.8,0,1.5,0,2.2,0
		c0.1,0,0.1,0,0.1-0.1c0.3-0.5,0.6-0.9,0.9-1.4c0-0.1,0-0.1,0-0.2c-0.3-0.5-0.7-1-1.1-1.6C19.1,15,18.4,16.1,17.7,17.1z"/>
	<linearGradient id="SVGID_3_" gradientUnits="userSpaceOnUse" x1="14.1642" y1="21.4324" x2="34.9524" y2="22.4912">
		<stop  offset="0" style="stop-color:#1E6894"/>
		<stop  offset="1" style="stop-color:#2E507A"/>
	</linearGradient>
	<path class="st3" d="M16.7,21.7c0-0.7,0-1.4,0-2c0-0.3,0.1-0.4,0.4-0.4c1.3,0,2.7,0,4,0c0.3,0,0.4,0.1,0.4,0.4c0,1.3,0,2.7,0,4
		c0,0.3-0.1,0.4-0.4,0.4c-1.3,0-2.7,0-4,0c-0.3,0-0.4-0.1-0.4-0.5C16.7,23,16.7,22.3,16.7,21.7z M20.9,21.7c0-0.5,0-1.1,0-1.6
		c0-0.1,0-0.2-0.2-0.2c-1.1,0-2.1,0-3.2,0c-0.1,0-0.2,0-0.2,0.2c0,1.1,0,2.1,0,3.2c0,0.1,0,0.2,0.2,0.2c1.1,0,2.1,0,3.2,0
		c0.1,0,0.2,0,0.2-0.2C20.9,22.7,20.9,22.2,20.9,21.7z"/>
	<linearGradient id="SVGID_4_" gradientUnits="userSpaceOnUse" x1="14.1795" y1="21.1307" x2="34.9678" y2="22.1895">
		<stop  offset="0" style="stop-color:#1E6894"/>
		<stop  offset="1" style="stop-color:#2E507A"/>
	</linearGradient>
	<path class="st4" d="M27.5,21.7c0,0.7,0,1.3,0,2c0,0.3-0.1,0.4-0.4,0.4c-1.4,0-2.7,0-4.1,0c-0.3,0-0.4-0.1-0.4-0.4
		c0-1.4,0-2.7,0-4.1c0-0.3,0.1-0.4,0.4-0.4c1.4,0,2.7,0,4.1,0c0.3,0,0.4,0.1,0.4,0.4C27.5,20.3,27.5,21,27.5,21.7z M25.1,19.9
		c-0.5,0-1.1,0-1.6,0c-0.1,0-0.2,0-0.2,0.2c0,1.1,0,2.1,0,3.2c0,0.1,0,0.2,0.2,0.2c1.1,0,2.1,0,3.2,0c0.1,0,0.2,0,0.2-0.2
		c0-1.1,0-2.1,0-3.2c0-0.1,0-0.2-0.2-0.2C26.1,19.9,25.6,19.9,25.1,19.9z"/>
	<linearGradient id="SVGID_5_" gradientUnits="userSpaceOnUse" x1="14.1949" y1="20.8292" x2="34.9831" y2="21.8881">
		<stop  offset="0" style="stop-color:#1E6894"/>
		<stop  offset="1" style="stop-color:#2E507A"/>
	</linearGradient>
	<path class="st5" d="M31,24.1c-0.7,0-1.3,0-2,0c-0.3,0-0.4-0.1-0.4-0.4c0-1.4,0-2.7,0-4.1c0-0.3,0.1-0.4,0.4-0.4c1.4,0,2.7,0,4.1,0
		c0.3,0,0.4,0.1,0.4,0.4c0,1.3,0,2.7,0,4c0,0.3-0.1,0.4-0.4,0.4C32.4,24.1,31.7,24.1,31,24.1z M32.8,21.7c0-0.5,0-1.1,0-1.6
		c0-0.1,0-0.2-0.2-0.2c-1.1,0-2.1,0-3.2,0c-0.1,0-0.2,0-0.2,0.2c0,1.1,0,2.1,0,3.2c0,0.1,0,0.2,0.2,0.2c1.1,0,2.1,0,3.2,0
		c0.1,0,0.2,0,0.2-0.2C32.8,22.8,32.8,22.2,32.8,21.7z"/>
	<linearGradient id="SVGID_6_" gradientUnits="userSpaceOnUse" x1="14.6918" y1="11.0727" x2="35.48" y2="12.1315">
		<stop  offset="0" style="stop-color:#1E6894"/>
		<stop  offset="1" style="stop-color:#2E507A"/>
	</linearGradient>
	<path class="st6" d="M31,11.6c0.7,0,1.4,0,2,0c0.3,0,0.4,0.1,0.4,0.4c0,0.2-0.2,0.3-0.4,0.3c-1.4,0-2.7,0-4.1,0
		c-0.3,0-0.4-0.1-0.4-0.4c0-0.2,0.2-0.3,0.4-0.3C29.7,11.6,30.3,11.6,31,11.6z"/>
	<linearGradient id="SVGID_7_" gradientUnits="userSpaceOnUse" x1="14.6208" y1="12.4665" x2="35.4091" y2="13.5253">
		<stop  offset="0" style="stop-color:#1E6894"/>
		<stop  offset="1" style="stop-color:#2E507A"/>
	</linearGradient>
	<path class="st7" d="M31,13c0.7,0,1.3,0,2,0c0.3,0,0.4,0.1,0.4,0.3c0,0.2-0.1,0.4-0.4,0.4c-1.4,0-2.7,0-4.1,0
		c-0.3,0-0.4-0.1-0.4-0.3c0-0.2,0.1-0.4,0.4-0.4C29.7,13,30.4,13,31,13z"/>
	<linearGradient id="SVGID_8_" gradientUnits="userSpaceOnUse" x1="14.5498" y1="13.8602" x2="35.3381" y2="14.9191">
		<stop  offset="0" style="stop-color:#1E6894"/>
		<stop  offset="1" style="stop-color:#2E507A"/>
	</linearGradient>
	<path class="st8" d="M31,15c-0.7,0-1.4,0-2,0c-0.3,0-0.4-0.1-0.4-0.4c0-0.2,0.2-0.3,0.4-0.3c1.4,0,2.7,0,4.1,0
		c0.3,0,0.4,0.1,0.4,0.4c0,0.2-0.2,0.3-0.4,0.3C32.4,15,31.7,15,31,15z"/>
	<linearGradient id="SVGID_9_" gradientUnits="userSpaceOnUse" x1="14.4788" y1="15.254" x2="35.2671" y2="16.3129">
		<stop  offset="0" style="stop-color:#1E6894"/>
		<stop  offset="1" style="stop-color:#2E507A"/>
	</linearGradient>
	<path class="st9" d="M31,16.4c-0.7,0-1.3,0-2,0c-0.3,0-0.4-0.1-0.4-0.4c0-0.2,0.2-0.3,0.4-0.3c1.4,0,2.7,0,4.1,0
		c0.3,0,0.4,0.1,0.4,0.4c0,0.2-0.2,0.3-0.4,0.3C32.4,16.4,31.7,16.4,31,16.4z"/>
	<linearGradient id="SVGID_10_" gradientUnits="userSpaceOnUse" x1="14.7651" y1="9.6344" x2="35.5533" y2="10.6933">
		<stop  offset="0" style="stop-color:#1E6894"/>
		<stop  offset="1" style="stop-color:#2E507A"/>
	</linearGradient>
	<path class="st10" d="M31.9,10.9c-0.4,0-0.8,0-1.2,0c-0.2,0-0.4-0.1-0.4-0.3c0-0.2,0.1-0.4,0.4-0.4c0.8,0,1.6,0,2.4,0
		c0.2,0,0.4,0.1,0.4,0.3c0,0.2-0.1,0.4-0.4,0.4C32.7,10.9,32.3,10.9,31.9,10.9z"/>
	<linearGradient id="SVGID_11_" gradientUnits="userSpaceOnUse" x1="14.4056" y1="16.6922" x2="35.1938" y2="17.751">
		<stop  offset="0" style="stop-color:#1E6894"/>
		<stop  offset="1" style="stop-color:#2E507A"/>
	</linearGradient>
	<path class="st11" d="M30.2,17.8c-0.4,0-0.8,0-1.2,0c-0.3,0-0.4-0.1-0.4-0.4c0-0.2,0.2-0.3,0.4-0.3c0.8,0,1.6,0,2.4,0
		c0.3,0,0.4,0.1,0.4,0.4c0,0.2-0.2,0.3-0.4,0.3C30.9,17.8,30.5,17.8,30.2,17.8z"/>
	<linearGradient id="SVGID_12_" gradientUnits="userSpaceOnUse" x1="14.7578" y1="9.7771" x2="35.546" y2="10.8359">
		<stop  offset="0" style="stop-color:#1E6894"/>
		<stop  offset="1" style="stop-color:#2E507A"/>
	</linearGradient>
	<path class="st12" d="M29.1,10.9c-0.1,0-0.1,0-0.2,0c-0.2,0-0.3-0.2-0.3-0.3c0-0.2,0.1-0.3,0.3-0.3c0.1,0,0.3,0,0.4,0
		c0.2,0,0.3,0.2,0.3,0.3c0,0.2-0.1,0.3-0.3,0.3C29.2,10.9,29.2,10.9,29.1,10.9z"/>
	<linearGradient id="SVGID_13_" gradientUnits="userSpaceOnUse" x1="14.4127" y1="16.5518" x2="35.201" y2="17.6106">
		<stop  offset="0" style="stop-color:#1E6894"/>
		<stop  offset="1" style="stop-color:#2E507A"/>
	</linearGradient>
	<path class="st13" d="M32.9,17.8c-0.1,0-0.1,0-0.2,0c-0.2,0-0.3-0.2-0.3-0.4c0-0.2,0.1-0.3,0.3-0.3c0.1,0,0.3,0,0.4,0
		c0.2,0,0.4,0.2,0.4,0.4c0,0.2-0.1,0.3-0.3,0.3C33.1,17.8,33,17.8,32.9,17.8C32.9,17.8,32.9,17.8,32.9,17.8z"/>
	<linearGradient id="SVGID_14_" gradientUnits="userSpaceOnUse" x1="14.9321" y1="6.3549" x2="35.7203" y2="7.4137">
		<stop  offset="0" style="stop-color:#1E6894"/>
		<stop  offset="1" style="stop-color:#2E507A"/>
	</linearGradient>
	<path class="st14" d="M27.9,7.4c-1.4,0-2.7,0-4.1,0c-0.2,0-0.3-0.1-0.4-0.2c-0.1-0.1,0-0.3,0.1-0.4c0.1-0.1,0.2-0.1,0.3-0.1
		c2.8,0,5.6,0,8.3,0c0.2,0,0.4,0.1,0.4,0.4c0,0.2-0.2,0.3-0.4,0.3C30.6,7.4,29.2,7.4,27.9,7.4z"/>
	<linearGradient id="SVGID_15_" gradientUnits="userSpaceOnUse" x1="14.9028" y1="6.9312" x2="35.691" y2="7.9901">
		<stop  offset="0" style="stop-color:#1E6894"/>
		<stop  offset="1" style="stop-color:#2E507A"/>
	</linearGradient>
	<path class="st15" d="M16.5,7.4c-0.1,0-0.1,0-0.2,0C16.1,7.4,16,7.2,16,7c0-0.2,0.1-0.3,0.4-0.4c0.1,0,0.2,0,0.3,0
		c0.2,0,0.4,0.1,0.4,0.3c0,0.2-0.1,0.3-0.4,0.4C16.6,7.4,16.6,7.4,16.5,7.4z"/>
	<linearGradient id="SVGID_16_" gradientUnits="userSpaceOnUse" x1="14.9073" y1="6.8425" x2="35.6955" y2="7.9013">
		<stop  offset="0" style="stop-color:#1E6894"/>
		<stop  offset="1" style="stop-color:#2E507A"/>
	</linearGradient>
	<path class="st16" d="M18.3,7.4c-0.1,0-0.1,0-0.2,0c-0.2,0-0.3-0.1-0.3-0.3c0-0.2,0.1-0.3,0.3-0.4c0.1,0,0.2,0,0.3,0
		c0.2,0,0.4,0.1,0.4,0.3c0,0.2-0.1,0.3-0.4,0.4C18.4,7.4,18.3,7.4,18.3,7.4z"/>
	<linearGradient id="SVGID_17_" gradientUnits="userSpaceOnUse" x1="14.9118" y1="6.7541" x2="35.7" y2="7.8129">
		<stop  offset="0" style="stop-color:#1E6894"/>
		<stop  offset="1" style="stop-color:#2E507A"/>
	</linearGradient>
	<path class="st17" d="M20,7.4c-0.1,0-0.1,0-0.2,0c-0.2,0-0.3-0.2-0.3-0.3c0-0.2,0.1-0.3,0.3-0.4c0.1,0,0.2,0,0.3,0
		c0.2,0,0.4,0.1,0.4,0.3c0,0.2-0.1,0.3-0.4,0.4C20.1,7.4,20.1,7.4,20,7.4z"/>
	<linearGradient id="SVGID_18_" gradientUnits="userSpaceOnUse" x1="14.9471" y1="6.0612" x2="35.7353" y2="7.12">
		<stop  offset="0" style="stop-color:#1E6894"/>
		<stop  offset="1" style="stop-color:#2E507A"/>
	</linearGradient>
	<path class="st18" d="M33.6,6.7c0.4,0,0.5,0.1,0.5,0.4c0,0.2-0.2,0.3-0.5,0.3c-0.4,0-0.5-0.1-0.5-0.4C33.1,6.8,33.3,6.7,33.6,6.7z"
		/>
</g>
<g>
	<g>
		<linearGradient id="SVGID_19_" gradientUnits="userSpaceOnUse" x1="24.6436" y1="43.0356" x2="25.2083" y2="2.9415">
			<stop  offset="0" style="stop-color:#1E6894"/>
			<stop  offset="1" style="stop-color:#2E507A"/>
		</linearGradient>
		<path class="st19" d="M44.9,2.8H5.1c-1.9,0-3.5,1.6-3.5,3.5v25c0,1.9,1.6,3.5,3.5,3.5h14.2v4.6h-2v1h15.5v-1h-2.4v-4.6h14.5
			c1.9,0,3.5-1.6,3.5-3.5v-25C48.4,4.4,46.8,2.8,44.9,2.8z M2.6,6.3c0-1.4,1.1-2.5,2.5-2.5h39.9c1.4,0,2.5,1.1,2.5,2.5v21.2H2.6V6.3
			z M29.4,39.4h-9.2v-4.6h9.2V39.4z M47.4,31.3c0,1.4-1.1,2.5-2.5,2.5H5.1c-1.4,0-2.5-1.1-2.5-2.5v-2.8h44.8V31.3z"/>
	</g>
	<g>
		<path class="st1" d="M25,32.8c-0.9,0-1.6-0.7-1.6-1.6c0-0.9,0.7-1.6,1.6-1.6c0.9,0,1.6,0.7,1.6,1.6C26.7,32.1,25.9,32.8,25,32.8z
			 M25,30.1c-0.6,0-1,0.5-1,1s0.5,1,1,1c0.6,0,1-0.5,1-1S25.6,30.1,25,30.1z"/>
	</g>
</g>
</svg>
